<svg viewBox="0 0 400 300" xmlns="http://www.w3.org/2000/svg">
  <rect width="400" height="300" fill="#e9f2f6"/>
  <rect x="0" y="0" width="400" height="185" fill="#dceaf1"/>
  <rect x="0" y="185" width="400" height="115" fill="#cfe1ea"/>
  <!-- pendant lights -->
  <line x1="140" y1="0" x2="140" y2="70" stroke="#0d2b3a" stroke-width="2"/>
  <ellipse cx="140" cy="82" rx="20" ry="14" fill="#c9a24b"/>
  <line x1="200" y1="0" x2="200" y2="55" stroke="#0d2b3a" stroke-width="2"/>
  <ellipse cx="200" cy="68" rx="20" ry="14" fill="#c9a24b"/>
  <line x1="260" y1="0" x2="260" y2="70" stroke="#0d2b3a" stroke-width="2"/>
  <ellipse cx="260" cy="82" rx="20" ry="14" fill="#c9a24b"/>
  <!-- table -->
  <ellipse cx="200" cy="205" rx="120" ry="26" fill="#1c7d8c"/>
  <rect x="180" y="228" width="12" height="40" fill="#0d2b3a"/>
  <rect x="208" y="228" width="12" height="40" fill="#0d2b3a"/>
  <!-- chairs -->
  <rect x="90" y="195" width="26" height="34" rx="6" fill="#0d2b3a"/>
  <rect x="284" y="195" width="26" height="34" rx="6" fill="#0d2b3a"/>
  <rect x="185" y="150" width="30" height="34" rx="6" fill="#0d2b3a"/>
  <!-- plates -->
  <circle cx="160" cy="205" r="13" fill="#f7fbfc"/>
  <circle cx="200" cy="212" r="13" fill="#f7fbfc"/>
  <circle cx="240" cy="205" r="13" fill="#f7fbfc"/>
  <!-- sideboard -->
  <rect x="20" y="230" width="90" height="35" rx="3" fill="#7a2a2a" opacity="0.85"/>
</svg>
