<svg viewBox="0 0 400 300" xmlns="http://www.w3.org/2000/svg">
  <rect width="400" height="300" fill="#e9f2f6"/>
  <rect x="0" y="0" width="400" height="185" fill="#dceaf1"/>
  <rect x="0" y="185" width="400" height="115" fill="#cfe1ea"/>
  <!-- window -->
  <rect x="250" y="30" width="120" height="140" rx="2" fill="#0d2b3a"/>
  <rect x="256" y="36" width="52" height="62" fill="#bcdce6"/>
  <rect x="312" y="36" width="52" height="62" fill="#a9d1de"/>
  <rect x="256" y="102" width="52" height="62" fill="#a9d1de"/>
  <rect x="312" y="102" width="52" height="62" fill="#bcdce6"/>
  <!-- curtain -->
  <path d="M250 30 Q262 100 246 170" stroke="#c9a24b" stroke-width="3" fill="none" opacity="0.6"/>
  <!-- sofa -->
  <rect x="30" y="185" width="180" height="60" rx="14" fill="#1c7d8c"/>
  <rect x="30" y="165" width="180" height="34" rx="14" fill="#22909f"/>
  <rect x="30" y="185" width="26" height="70" rx="10" fill="#176570"/>
  <rect x="184" y="185" width="26" height="70" rx="10" fill="#176570"/>
  <circle cx="70" cy="180" r="14" fill="#c9a24b" opacity="0.85"/>
  <circle cx="120" cy="180" r="14" fill="#7a2a2a" opacity="0.85"/>
  <!-- coffee table -->
  <rect x="90" y="250" width="90" height="8" rx="2" fill="#0d2b3a"/>
  <rect x="100" y="258" width="8" height="22" fill="#0d2b3a"/>
  <rect x="162" y="258" width="8" height="22" fill="#0d2b3a"/>
  <!-- rug -->
  <ellipse cx="140" cy="272" rx="120" ry="14" fill="#1c7d8c" opacity="0.18"/>
  <!-- plant -->
  <rect x="335" y="230" width="30" height="34" rx="4" fill="#0d2b3a"/>
  <path d="M350 230 C330 210 325 185 350 175 C375 185 370 210 350 230 Z" fill="#1c7d8c"/>
  <path d="M350 220 C338 205 336 190 350 182" stroke="#e9f2f6" stroke-width="2" fill="none" opacity="0.4"/>
  <!-- floor lamp -->
  <line x1="235" y1="180" x2="235" y2="280" stroke="#0d2b3a" stroke-width="3"/>
  <path d="M215 165 L255 165 L245 190 L225 190 Z" fill="#c9a24b"/>
  <circle cx="235" cy="280" r="7" fill="#0d2b3a"/>
</svg>
