<svg viewBox="0 0 400 300" xmlns="http://www.w3.org/2000/svg">
  <rect width="400" height="300" fill="#e9f2f6"/>
  <rect x="0" y="0" width="400" height="185" fill="#dceaf1"/>
  <rect x="0" y="185" width="400" height="115" fill="#cfe1ea"/>
  <!-- bookshelf -->
  <rect x="30" y="40" width="110" height="150" fill="#0d2b3a"/>
  <rect x="38" y="48" width="94" height="30" fill="#123a4d"/>
  <rect x="38" y="86" width="94" height="30" fill="#123a4d"/>
  <rect x="38" y="124" width="94" height="30" fill="#123a4d"/>
  <rect x="42" y="52" width="6" height="22" fill="#c9a24b"/>
  <rect x="52" y="52" width="6" height="22" fill="#7a2a2a"/>
  <rect x="62" y="52" width="6" height="22" fill="#e9f2f6"/>
  <rect x="46" y="90" width="6" height="22" fill="#c9a24b"/>
  <rect x="60" y="90" width="6" height="22" fill="#e9f2f6"/>
  <rect x="80" y="90" width="6" height="22" fill="#7a2a2a"/>
  <!-- desk -->
  <rect x="150" y="175" width="210" height="12" fill="#c9a24b"/>
  <rect x="160" y="187" width="10" height="65" fill="#0d2b3a"/>
  <rect x="340" y="187" width="10" height="65" fill="#0d2b3a"/>
  <!-- chair -->
  <rect x="240" y="220" width="40" height="10" rx="4" fill="#1c7d8c"/>
  <rect x="248" y="185" width="24" height="40" rx="8" fill="#1c7d8c"/>
  <line x1="260" y1="230" x2="260" y2="255" stroke="#0d2b3a" stroke-width="4"/>
  <!-- monitor -->
  <rect x="200" y="130" width="70" height="45" rx="3" fill="#0d2b3a"/>
  <rect x="206" y="136" width="58" height="33" fill="#7fb9c9"/>
  <rect x="228" y="175" width="14" height="10" fill="#0d2b3a"/>
  <!-- desk lamp -->
  <line x1="310" y1="140" x2="330" y2="175" stroke="#7a2a2a" stroke-width="3"/>
  <path d="M300 130 L322 130 L316 145 L306 145 Z" fill="#7a2a2a"/>
  <!-- window -->
  <rect x="335" y="35" width="45" height="80" rx="2" fill="#0d2b3a"/>
  <rect x="340" y="41" width="34" height="32" fill="#bcdce6"/>
  <rect x="340" y="77" width="34" height="32" fill="#a9d1de"/>
</svg>
